<svg id="art" xmlns="http://www.w3.org/2000/svg" width="495.18" height="366.115" viewBox="0 0 495.18 366.115">
  <defs>
    <style>
      .cls-1 {
        fill: #707070;
      }

      .cls-2 {
        fill: #2f2e41;
      }

      .cls-3 {
        fill: #3f3d56;
      }

      .cls-4 {
        fill: #f9a826;
      }

      .cls-5 {
        fill: #bad4aa;
      }

      .cls-6 {
        fill: #ffc8ac;
      }

      .cls-7, .cls-8 {
        opacity: 0.1;
      }

      .cls-8 {
        fill: #5b5b5b;
      }

      .cls-9 {
        fill: #7d480b;
      }
    </style>
  </defs>
  <path id="Path_471" data-name="Path 471" class="cls-1" d="M309.147,115.924V299.047a8.228,8.228,0,0,1-8.212,8.212H37.1a5.791,5.791,0,0,1-5.8-5.8V138.539A37.23,37.23,0,0,1,68.539,101.3H294.48A14.628,14.628,0,0,1,309.147,115.924Z" transform="translate(-17.555 -56.815)"/>
  <path id="Path_472" data-name="Path 472" class="cls-2" d="M211.174,351.824a95.992,95.992,0,0,1-9.793,42.246H37.1a5.791,5.791,0,0,1-5.8-5.8V306.065a95.747,95.747,0,0,1,179.874,45.759Z" transform="translate(-17.555 -143.582)"/>
  <path id="Path_473" data-name="Path 473" class="cls-3" d="M308.754,383.147v49.272a8.228,8.228,0,0,1-8.212,8.212H36.353a5.773,5.773,0,0,1-5.753-5.753v-.044c0-41.06,127.7-76.06,164.021-89.673a95.823,95.823,0,0,1,114.134,37.986Z" transform="translate(-17.162 -190.187)"/>
  <circle id="Ellipse_73" data-name="Ellipse 73" class="cls-4" cx="23.846" cy="23.846" r="23.846" transform="translate(220.714 120.614) rotate(-80.782)"/>
  <path id="Path_474" data-name="Path 474" class="cls-5" d="M123.575,107.2c0,46.505-27.666,62.754-61.788,62.754S0,153.708,0,107.2,61.788,1.5,61.788,1.5,123.575,60.7,123.575,107.2Z" transform="translate(0 -0.841)"/>
  <path id="Path_475" data-name="Path 475" class="cls-3" d="M103.856,162.842l.615-38.908,26.349-48.174-26.261,42.07.307-17.522L123,65.44,104.91,95.653h0l.527-31.487,19.454-27.754L105.524,59.248,105.832,1.5l-2.02,76.411.176-3.118L84.226,44.536,103.68,80.81l-1.844,35.176-.044-.922L79,83.225l22.7,35.132-.22,4.391-.044.088v.351l-4.655,89.234h6.236l.747-46.11,22.66-35.044Z" transform="translate(-44.308 -0.841)"/>
  <path id="Path_476" data-name="Path 476" class="cls-5" d="M383.722,85.018c0,37.415-22.265,50.5-49.711,50.5S284.3,122.434,284.3,85.018,334.055,0,334.055,0,383.722,47.6,383.722,85.018Z" transform="translate(-159.451)"/>
  <path id="Path_477" data-name="Path 477" class="cls-3" d="M367.981,129.811l.483-31.311,21.167-38.777L368.552,93.582l.22-14.1L383.4,51.468,368.859,75.753h0l.4-25.339,15.634-22.309L369.3,46.462,369.562,0l-1.625,61.48.132-2.547L352.216,34.6l15.634,29.2-1.493,28.281-.044-.747L348,65.74l18.268,28.281-.22,3.513v.351l-3.777,71.8h5.05l.615-37.108,18.181-28.149Z" transform="translate(-195.178)"/>
  <path id="Path_478" data-name="Path 478" class="cls-5" d="M658.426,240.765c0,25.207-14.975,33.99-33.463,33.99s-33.463-8.783-33.463-33.99S624.963,183.5,624.963,183.5,658.426,215.558,658.426,240.765Z" transform="translate(-331.746 -102.917)"/>
  <path id="Path_479" data-name="Path 479" class="cls-3" d="M647.738,270.89l.351-21.079,14.272-26.085-14.228,22.748.176-9.442,9.793-18.883-9.749,16.336h0l.263-17.039,10.54-15.019-10.5,12.34.176-31.267-1.1,41.411.088-1.713-10.715-16.38,10.539,19.63-1.01,19.059v-.483L634.3,227.766l12.3,19.015-.132,2.371v.264l-2.547,48.306H647.3l.4-24.943,12.3-18.971Z" transform="translate(-355.75 -102.917)"/>
  <path id="Path_480" data-name="Path 480" class="cls-5" d="M173.209,410.39c-1.493,2.371-3.381,2.327-5.138,1.23s-2.635-2.811-1.142-5.138,6.5-3.381,6.5-3.381S174.7,408.018,173.209,410.39Z" transform="translate(-93.196 -226.081)"/>
  <path id="Path_481" data-name="Path 481" class="cls-5" d="M68.309,425.09c-1.493,2.371-3.381,2.327-5.138,1.23s-2.635-2.811-1.142-5.138c1.493-2.371,6.5-3.381,6.5-3.381S69.758,422.718,68.309,425.09Z" transform="translate(-34.363 -234.325)"/>
  <path id="Path_482" data-name="Path 482" class="cls-5" d="M440.015,400.928c.264,2.767-1.273,3.908-3.294,4.128s-3.777-.615-4.04-3.381S435.755,395,435.755,395,439.707,398.162,440.015,400.928Z" transform="translate(-242.663 -221.538)"/>
  <path id="Path_483" data-name="Path 483" class="cls-5" d="M319.309,320.89c-1.493,2.371-3.381,2.327-5.138,1.23s-2.635-2.81-1.142-5.138,6.5-3.381,6.5-3.381S320.8,318.518,319.309,320.89Z" transform="translate(-175.137 -175.884)"/>
  <path id="Path_484" data-name="Path 484" class="cls-5" d="M598.209,403.79c-1.493,2.371-3.381,2.327-5.138,1.23s-2.635-2.811-1.142-5.138,6.5-3.381,6.5-3.381S599.7,401.418,598.209,403.79Z" transform="translate(-331.56 -222.379)"/>
  <path id="Path_485" data-name="Path 485" class="cls-1" d="M864.241,325.787c0,77.377-35.132,138.419-78.387,140.087-56.43,2.2-130.163-54.059-78.387-140.087C747.341,259.476,742.554,185.7,785.854,185.7S864.241,248.41,864.241,325.787Z" transform="translate(-386.935 -104.151)"/>
  <ellipse id="Ellipse_74" data-name="Ellipse 74" class="cls-3" cx="69.824" cy="7.465" rx="69.824" ry="7.465" transform="translate(306.918 351.184)"/>
  <path id="Path_486" data-name="Path 486" class="cls-5" d="M985.015,597.928c.264,2.767-1.273,3.908-3.294,4.128s-3.777-.615-4.04-3.381S980.755,592,980.755,592,984.707,595.162,985.015,597.928Z" transform="translate(-548.329 -332.026)"/>
  <path id="Path_487" data-name="Path 487" class="cls-5" d="M920.309,578.09c-1.493,2.371-3.381,2.328-5.138,1.23s-2.635-2.811-1.142-5.138,6.5-3.381,6.5-3.381S921.758,575.718,920.309,578.09Z" transform="translate(-512.211 -320.136)"/>
  <path id="Path_488" data-name="Path 488" class="cls-6" d="M896.014,732.736s3.294,14.4,8.476,17.478-12.6,8.959-12.6,8.959-7.729,4.787-9.705,6.5S871.6,771.117,873,768.35s3.908-7.992,7.817-12.3,9.09-12.12,4.611-18.181S896.014,732.736,896.014,732.736Z" transform="translate(-489.542 -410.93)"/>
  <path id="Path_489" data-name="Path 489" class="cls-4" d="M850.139,333.386l-1.713-.615s-4.435-.615-8.563,4.567-13.394,20.991-13.394,20.991L823,366.5l12.252.351,9.222-20.288Z" transform="translate(-461.584 -186.624)"/>
  <path id="Path_490" data-name="Path 490" class="cls-7" d="M850.139,333.386l-1.713-.615s-4.435-.615-8.563,4.567-13.394,20.991-13.394,20.991L823,366.5l12.252.351,9.222-20.288Z" transform="translate(-461.584 -186.624)"/>
  <path id="Path_491" data-name="Path 491" class="cls-2" d="M866.354,620.5s6.982,1.537,5.8,6.939,7.29,12.384,8.124,13.57,1.976,1.669,1.23,3.469,17.258,27.1,13.657,29.423-32.672,11.286-35.263,9.485-4.7-60.514-4.7-60.514Z" transform="translate(-479.643 -348.011)"/>
  <path id="Path_492" data-name="Path 492" class="cls-7" d="M866.354,620.5s6.982,1.537,5.8,6.939,7.29,12.384,8.124,13.57,1.976,1.669,1.23,3.469,17.258,27.1,13.657,29.423-32.672,11.286-35.263,9.485-4.7-60.514-4.7-60.514Z" transform="translate(-479.643 -348.011)"/>
  <path id="Path_493" data-name="Path 493" class="cls-6" d="M795.629,760.832s-4.348,14.1-1.405,19.366-15.37,1.493-15.37,1.493-9.09.263-11.681.79-11.9-.615-9.266-2.284,7.378-4.962,12.955-6.763S784.782,767.507,783.9,760,795.629,760.832,795.629,760.832Z" transform="translate(-424.815 -424.49)"/>
  <path id="Path_494" data-name="Path 494" class="cls-2" d="M814.505,441.445a13.781,13.781,0,0,1,8.212-2.547c4.787.176,20.376,3.908,19.937,4.655a20.34,20.34,0,0,1-1.405,1.844s1.01,4.523.571,4.962,8.476,10.627,3.294,32.541-4.655,37.108-4.655,37.108,2.108,64.247-3.908,65.564-29.642.439-30.784-2.108,3.425-81.33,3.425-81.33.483-39.611,1.669-44.441S814.505,441.445,814.505,441.445Z" transform="translate(-451.815 -246.157)"/>
  <circle id="Ellipse_75" data-name="Ellipse 75" class="cls-6" cx="14.931" cy="14.931" r="14.931" transform="translate(375.03 109.523)"/>
  <path id="Path_495" data-name="Path 495" class="cls-6" d="M878.267,297.7s9.222,9.046-2.152,16.029c-8.036,4.918,19.366-3.821,19.366-3.821s-5.709-14.536-4.831-17.873C891.485,288.652,878.267,297.7,878.267,297.7Z" transform="translate(-490.546 -163.364)"/>
  <path id="Path_496" data-name="Path 496" class="cls-4" d="M856.692,332.594s12.823-5.885,14.931-3.777,11.2,10.759,1.318,26.129-11.813,26.876-13.482,28.149-2.723-1.669-2.723-1.669-4.831-4.391-7.992-4.391-16.644,1.493-16.644,1.493l3.777-14.975s-1.844-11.813,4.435-17.7,13.262-15.546,13.262-15.546l3.557-.659a7.864,7.864,0,0,1-1.054,1.713,7.423,7.423,0,0,1-1.317,1.317C854.716,332.77,854.716,332.858,856.692,332.594Z" transform="translate(-466.687 -184.163)"/>
  <path id="Path_497" data-name="Path 497" class="cls-5" d="M932.458,475.591c-25.866-9.442-29.291-28.105-22.352-47.076s21.562-31.048,47.428-21.606,46.242,55.815,46.242,55.815S958.324,485.032,932.458,475.591Z" transform="translate(-508.683 -226.376)"/>
  <path id="Path_498" data-name="Path 498" class="cls-3" d="M889.2,442.809l21.518,8.256,21.43,24.416L914.1,452.338l9.661,3.733,15.677,17.171-13.13-16.2h0l17.434,6.675,11.462,16.468-8.739-15.414,32.058,11.9-42.114-16.644,1.713.747,20.859-4.831-24.153,3.425L915.639,451.2l.527.176,22.352-6.192-24.153,5.489-2.415-1.054h0l-.22-.088L863.073,428.8l-1.273,3.469,25.47,9.793,14.887,19.718Z" transform="translate(-483.345 -240.495)"/>
  <path id="Path_499" data-name="Path 499" class="cls-6" d="M817.049,408.25s-5.489,7.422-1.844,10.232,11.33-1.976,11.33-1.976,17.7,12.3,17.434,5.094-12.955-12.252-12.955-12.252l-8.563.263,1.317-4.26-3.6-.351Z" transform="translate(-456.511 -227.146)"/>
  <path id="Path_500" data-name="Path 500" class="cls-8" d="M817.049,408.25s-5.489,7.422-1.844,10.232,11.33-1.976,11.33-1.976,17.7,12.3,17.434,5.094-12.955-12.252-12.955-12.252l-8.563.263,1.317-4.26-3.6-.351Z" transform="translate(-456.511 -227.146)"/>
  <path id="Path_501" data-name="Path 501" class="cls-6" d="M856.925,335.146s-34.78,26.788-37.02,17.39c-1.449-6.1-.351-21.167.615-30.96a30.4,30.4,0,0,1,9-18.8c2.108-2.02,4.04-3.294,5.006-2.371,2.723,2.679-6.368,13.306-6.368,13.306s-1.493,21.606,1.493,24.065c0,0,10.759-10.408,13-10.232S856.925,335.146,856.925,335.146Z" transform="translate(-459.455 -168.315)"/>
  <path id="Path_502" data-name="Path 502" class="cls-4" d="M892.319,337.525s6.192,15.765-7.729,19.366a11.774,11.774,0,0,0-7.158-4.391C873,351.885,869,347.23,869,347.23s9.09-12.823,16.2-13.043S892.319,337.525,892.319,337.525Z" transform="translate(-487.383 -187.425)"/>
  <path id="Path_503" data-name="Path 503" class="cls-9" d="M898.5,277.066c-2.327-7.773,1.23-10.5-1.844-15.9-.878-1.581-1.669-2.152-3.03-4.831a39.364,39.364,0,0,1-2.327-5.972c-1.493-4.04-7.949-9.266-16.38-9.266-9.661,0-17.522,4.875-17.522,8.959,0,3.381,5.358,6.236,12.691,7.114,4.3,3.645,5.8,7.07,6.368,9.573.834,3.733-.088,7.158,2.284,9.881.4.483,1.449,1.581,2.811,3.425a27.457,27.457,0,0,1,1.669,2.5c1.449,2.679,1.01,4.172,2.108,7.422.834,2.459,1.274,2.108,1.8,3.864,1.757,5.8-2.547,10.935-.615,12.428a3.312,3.312,0,0,0,2.635.22c4-.659,7.9-4.7,8.519-9.134.483-3.513-1.493-4.479-.439-7.773.834-2.591,2.327-2.854,2.942-5.182C900.831,281.9,899.558,280.579,898.5,277.066Z" transform="translate(-480.877 -135.222)"/>
</svg>
