<svg xmlns="http://www.w3.org/2000/svg" width="479.13" height="299.304" viewBox="0 0 479.13 299.304"><defs><style>.a{fill:#535461;}.b{fill:#f2f2f2;}.c{fill:#62626b;}.d{fill:#bad4aa;}.e{fill:#3f3d56;}.f{fill:#ccc;}.g{fill:#fff;}.h{fill:#e6e6e6;}.i{fill:#f9a826;}.j{fill:#d0cde1;}</style></defs><path class="a" d="M410.026,16.376h-.555V15.4h.416a.277.277,0,0,0,.278-.278v-5a.277.277,0,0,0-.278-.278h-.416V7.016A6.045,6.045,0,0,0,403.426.971h-.617V.278A.277.277,0,0,0,402.532,0h-5a.278.278,0,0,0-.278.278V.971H306.989a6.044,6.044,0,0,0-6.044,6.044h0V135.65a6.044,6.044,0,0,0,6.044,6.044h96.437a6.045,6.045,0,0,0,6.045-6.044h0V21.927h.555a.278.278,0,0,0,.277-.278v-5a.278.278,0,0,0-.278-.278Z" transform="translate(-176.805)"/><rect class="b" width="99.368" height="131.844" transform="translate(129.136 4.925)"/><path class="c" d="M0-.556H479.13V.825H0Z" transform="translate(0 275.551)"/><g transform="translate(27.756 161.224)"><path class="d" d="M151.423,461.589c.925,31.677-17.584,43.287-40.812,43.965q-.809.024-1.611.029-1.616.012-3.2-.054c-21.007-.872-37.636-12.024-38.5-41.484-.89-30.487,36.951-70.1,39.79-73.03,0,0,0,0,0,0,.108-.112.163-.167.163-.167S150.5,429.913,151.423,461.589Z" transform="translate(-67.287 -390.845)"/><path class="e" d="M141.927,500.759l14.755-21.943-14.725,24.3.031,2.469q-1.616.012-3.2-.054l.732-31.739-.02-.245.027-.047.07-3-16.159-23.461,16.14,21.216.057.634.553-23.98L126.23,420.591l14,20.111-.146-49.681v-.165l0,.163.926,39.155,12.72-15.9-12.679,19.278L141.331,455l11.705-20.934-11.662,24.087.154,11.927,17.022-29.161-16.97,33.321Z" transform="translate(-100.275 -390.852)"/></g><path class="a" d="M787.58,68.482h-.615V51.649a9.743,9.743,0,0,0-9.742-9.743H741.56a9.743,9.743,0,0,0-9.743,9.743h0V144a9.743,9.743,0,0,0,9.743,9.743h35.663A9.742,9.742,0,0,0,786.966,144h0V80.464h.615Z" transform="translate(-429.941 -24.62)"/><path class="b" d="M788.721,56.552v92.214a7.277,7.277,0,0,1-7.275,7.277H745.611a7.276,7.276,0,0,1-7.275-7.277V56.552a7.275,7.275,0,0,1,7.275-7.274h4.347a3.456,3.456,0,0,0,3.2,4.761H773.59a3.456,3.456,0,0,0,3.2-4.761h4.655A7.275,7.275,0,0,1,788.721,56.552Z" transform="translate(-433.771 -28.951)"/><rect class="f" width="30.276" height="1.125" transform="translate(319.42 32.588)"/><rect class="f" width="30.276" height="1.125" transform="translate(319.42 36.15)"/><rect class="f" width="30.276" height="1.125" transform="translate(319.42 39.713)"/><rect class="f" width="6.859" height="6.859" transform="translate(309.819 33.283)"/><rect class="f" width="30.276" height="1.125" transform="translate(319.42 112.613)"/><rect class="f" width="30.276" height="1.125" transform="translate(319.42 116.175)"/><rect class="f" width="30.276" height="1.125" transform="translate(319.42 119.738)"/><rect class="f" width="6.859" height="6.859" transform="translate(309.819 113.308)"/><path class="a" d="M530.259,378.041h-86.1v-1.775h-39.04v1.775H318.668a5.824,5.824,0,0,0-5.824,5.824h0V501.759a5.824,5.824,0,0,0,5.824,5.824H530.259a5.824,5.824,0,0,0,5.824-5.824V383.864A5.824,5.824,0,0,0,530.259,378.041Z" transform="translate(-183.795 -221.056)"/><rect class="b" width="207.623" height="117.12" transform="translate(136.857 167.277)"/><circle class="g" cx="2.129" cy="2.129" r="2.129" transform="translate(238.361 159.824)"/><path class="a" d="M529.275,681.792H509.012v-1.46a.289.289,0,0,0-.29-.29h-6.947a.289.289,0,0,0-.29.29h0v1.46h-4.342v-1.46a.289.289,0,0,0-.29-.29h-6.947a.289.289,0,0,0-.29.29h0v1.46h-4.342v-1.46a.289.289,0,0,0-.29-.29H478.04a.289.289,0,0,0-.29.29h0v1.46h-4.342v-1.46a.289.289,0,0,0-.29-.29h-6.947a.289.289,0,0,0-.29.29h0v1.46H461.54v-1.46a.289.289,0,0,0-.29-.29H454.3a.289.289,0,0,0-.29.29h0v1.46h-4.342v-1.46a.289.289,0,0,0-.29-.29h-6.947a.289.289,0,0,0-.29.29h0v1.46H437.8v-1.46a.289.289,0,0,0-.29-.29h-54.42a.289.289,0,0,0-.289.29h0v1.46h-4.342v-1.46a.289.289,0,0,0-.29-.29h-6.947a.289.289,0,0,0-.289.29h0v1.46H366.6v-1.46a.289.289,0,0,0-.29-.29h-6.947a.289.289,0,0,0-.289.29h0v1.46h-4.342v-1.46a.289.289,0,0,0-.29-.29H347.49a.289.289,0,0,0-.289.29h0v1.46h-4.342v-1.46a.289.289,0,0,0-.29-.29h-6.947a.289.289,0,0,0-.289.29h0v1.46h-4.342v-1.46a.29.29,0,0,0-.29-.29h-6.947a.289.289,0,0,0-.289.29h0v1.46h-4.342v-1.46a.29.29,0,0,0-.29-.29h-6.947a.289.289,0,0,0-.289.29h0v1.46H298.281a6.947,6.947,0,0,0-6.947,6.947v3.142a6.947,6.947,0,0,0,6.947,6.947H529.275a6.947,6.947,0,0,0,6.947-6.947V688.74a6.947,6.947,0,0,0-6.947-6.947Z" transform="translate(-171.158 -399.524)"/><rect class="h" width="58.262" height="2.165" transform="translate(220.601 176.45)"/><rect class="h" width="58.262" height="2.165" transform="translate(220.601 183.306)"/><rect class="h" width="58.262" height="2.165" transform="translate(220.601 190.161)"/><rect class="f" width="58.262" height="2.165" transform="translate(220.601 176.45)"/><rect class="f" width="58.262" height="2.165" transform="translate(220.601 183.306)"/><rect class="f" width="58.262" height="2.165" transform="translate(220.601 190.161)"/><rect class="f" width="13" height="13" transform="translate(202 177.722)"/><rect class="f" width="58.262" height="2.165" transform="translate(220.601 253.588)"/><rect class="f" width="58.262" height="2.165" transform="translate(220.601 260.444)"/><rect class="f" width="58.262" height="2.165" transform="translate(220.601 267.299)"/><rect class="f" width="13" height="13" transform="translate(202 254.722)"/><rect class="f" width="58.262" height="2.165" transform="translate(158.926 11.45)"/><rect class="f" width="58.262" height="2.165" transform="translate(158.926 18.305)"/><rect class="f" width="58.262" height="2.165" transform="translate(158.926 25.161)"/><rect class="f" width="13.2" height="13.2" transform="translate(140.451 12.788)"/><rect class="f" width="58.262" height="2.165" transform="translate(158.726 114.163)"/><rect class="f" width="58.262" height="2.165" transform="translate(158.726 121.018)"/><rect class="f" width="58.262" height="2.165" transform="translate(158.726 127.874)"/><rect class="f" width="14" height="15" transform="translate(140 114.722)"/><circle class="i" cx="9.844" cy="9.844" r="9.844" transform="translate(50.209 37.363)"/><circle class="i" cx="8.044" cy="8.044" r="8.044" transform="translate(252.733 107.201)"/><circle class="i" cx="4.894" cy="4.894" r="4.894" transform="translate(60.053 130.039)"/><circle class="i" cx="5.171" cy="5.171" r="5.171" transform="translate(391.234 47.207)"/><circle class="j" cx="4.111" cy="4.111" r="4.111" transform="translate(423.776 103.09)"/><circle class="i" cx="2.696" cy="2.696" r="2.696" transform="translate(381.148 149.818)"/><g transform="translate(206.406 197.567)"><ellipse class="j" cx="19.952" cy="13.946" rx="19.952" ry="13.946" transform="translate(11.448 35.67) rotate(-59.075)"/><path class="i" d="M522.447,501.015a22.052,22.052,0,0,1,16.135-15.049,22.066,22.066,0,1,0-11.166,36.546A22.053,22.053,0,0,1,522.447,501.015Z" transform="translate(-500.376 -478.948)"/><path class="e" d="M596.468,497.973a21.959,21.959,0,0,0-11.416-.393,22.061,22.061,0,0,1-11.166,36.546,22.065,22.065,0,1,0,22.582-36.152Z" transform="translate(-543.563 -489.558)"/></g><g transform="translate(140.451 47.918)"><ellipse class="j" cx="19.952" cy="13.946" rx="19.952" ry="13.946" transform="translate(11.448 35.67) rotate(-59.075)"/><path class="i" d="M362.557,138.233a22.052,22.052,0,0,1,16.135-15.049,22.066,22.066,0,1,0-11.166,36.546A22.052,22.052,0,0,1,362.557,138.233Z" transform="translate(-340.486 -116.165)"/><path class="e" d="M436.577,135.191a21.95,21.95,0,0,0-11.416-.394,22.06,22.06,0,0,1-11.166,36.546,22.065,22.065,0,1,0,22.582-36.152Z" transform="translate(-383.672 -126.775)"/></g><g transform="translate(309.496 61.035)"><ellipse class="j" cx="11.869" cy="8.296" rx="11.869" ry="8.296" transform="translate(6.81 21.219) rotate(-59.075)"/><path class="i" d="M763.421,161.09a13.117,13.117,0,0,1,9.6-8.952,13.127,13.127,0,1,0-6.642,21.74A13.117,13.117,0,0,1,763.421,161.09Z" transform="translate(-750.291 -147.963)"/><path class="e" d="M807.454,159.281a13.061,13.061,0,0,0-6.791-.234,13.124,13.124,0,0,1-6.643,21.741,13.126,13.126,0,1,0,13.434-21.506Z" transform="translate(-775.982 -154.275)"/></g><circle class="d" cx="4.339" cy="4.339" r="4.339" transform="translate(407.478 177.533)"/><circle class="j" cx="6.199" cy="6.199" r="6.199" transform="translate(82.919 81.09)"/><circle class="d" cx="4.111" cy="4.111" r="4.111" transform="translate(37.823 98.978)"/><circle class="j" cx="8.044" cy="8.044" r="8.044" transform="translate(431.999 237.501)"/><circle class="i" cx="5.171" cy="5.171" r="5.171" transform="translate(455.093 136.523)"/><circle class="d" cx="8.044" cy="8.044" r="8.044" transform="translate(431.999 20.47)"/></svg>