<svg id="desk" xmlns="http://www.w3.org/2000/svg" xmlns:xlink="http://www.w3.org/1999/xlink" width="443.743" height="229.318" viewBox="0 0 443.743 229.318">
  <defs>
    <style>
      .cls-1 {
        opacity: 0.7;
      }

      .cls-2 {
        fill: url(#linear-gradient);
      }

      .cls-3 {
        fill: #bdbdbd;
      }

      .cls-18, .cls-4 {
        opacity: 0.1;
      }

      .cls-5 {
        fill: #535461;
      }

      .cls-6 {
        opacity: 0.5;
      }

      .cls-7 {
        fill: url(#linear-gradient-2);
      }

      .cls-8 {
        fill: #fff;
      }

      .cls-9 {
        fill: #f9a826;
      }

      .cls-10 {
        fill: #e0e0e0;
      }

      .cls-11, .cls-12, .cls-14, .cls-16 {
        fill: none;
        stroke-miterlimit: 10;
      }

      .cls-11 {
        stroke: #f9a826;
        stroke-width: 2px;
      }

      .cls-12 {
        stroke: #fff;
      }

      .cls-13 {
        fill: url(#linear-gradient-3);
      }

      .cls-14, .cls-16 {
        stroke: #535461;
      }

      .cls-14 {
        stroke-width: 3px;
        opacity: 0.6;
      }

      .cls-15 {
        fill: #bad4aa;
      }

      .cls-16 {
        opacity: 0.3;
      }

      .cls-17 {
        fill: #959595;
      }

      .cls-19 {
        fill: url(#linear-gradient-4);
      }
    </style>
    <linearGradient id="linear-gradient" x1="0.712" y1="-0.35" x2="0.712" y2="0.65" gradientUnits="objectBoundingBox">
      <stop offset="0" stop-color="gray" stop-opacity="0.251"/>
      <stop offset="0.54" stop-color="gray" stop-opacity="0.122"/>
      <stop offset="1" stop-color="gray" stop-opacity="0.102"/>
    </linearGradient>
    <linearGradient id="linear-gradient-2" x1="0.5" y1="0.927" x2="0.5" y2="1.926" xlink:href="#linear-gradient"/>
    <linearGradient id="linear-gradient-3" x1="0.668" y1="-0.664" x2="1.669" y2="-0.664" xlink:href="#linear-gradient"/>
    <linearGradient id="linear-gradient-4" x1="1.165" y1="-1.999" x2="2.166" y2="-1.999" xlink:href="#linear-gradient"/>
  </defs>
  <g id="Group_275" data-name="Group 275" class="cls-1" transform="translate(98.533)">
    <path id="Path_438" data-name="Path 438" class="cls-2" d="M454.474,0H223.146A7.486,7.486,0,0,0,215.7,7.492v159.2a7.486,7.486,0,0,0,7.446,7.492h79.576v27.5h-3.609a3.782,3.782,0,0,0-3.792,3.791h0V211h7.4v3.243h72.221V211h7.4v-5.527a3.782,3.782,0,0,0-3.792-3.791h-3.426v-.228H374.9V174.227h79.576a7.486,7.486,0,0,0,7.446-7.492V7.492A7.486,7.486,0,0,0,454.474,0Z" transform="translate(-215.7)"/>
  </g>
  <rect id="Rectangle_137" data-name="Rectangle 137" class="cls-3" width="71.262" height="42.026" transform="translate(186.241 169.476)"/>
  <g id="Group_276" data-name="Group 276" class="cls-4" transform="translate(186.056 167.649)">
    <path id="Path_439" data-name="Path 439" d="M408.9,372.939h68.613c.822-3.609,1.507-5.939,1.507-5.939H407.3C407.252,367,407.983,369.33,408.9,372.939Z" transform="translate(-407.296 -367)"/>
  </g>
  <path id="Path_440" data-name="Path 440" class="cls-5" d="M227.055,3H455.367a7.35,7.35,0,0,1,7.355,7.355V151.006H219.7V10.355A7.35,7.35,0,0,1,227.055,3Z" transform="translate(-119.339 -1.63)"/>
  <path id="Path_441" data-name="Path 441" class="cls-3" d="M455.367,349.84H227.055a7.35,7.35,0,0,1-7.355-7.355V327H462.722v15.486A7.35,7.35,0,0,1,455.367,349.84Z" transform="translate(-119.339 -177.624)"/>
  <circle id="Ellipse_64" data-name="Ellipse 64" class="cls-5" cx="4.111" cy="4.111" r="4.111" transform="translate(217.76 156.685)"/>
  <path id="Path_442" data-name="Path 442" class="cls-3" d="M395.5,436h78.434a3.763,3.763,0,0,1,3.746,3.746v5.39H391.8v-5.39A3.7,3.7,0,0,1,395.5,436Z" transform="translate(-212.822 -236.832)"/>
  <g id="Group_277" data-name="Group 277" class="cls-6" transform="translate(146.498 32.479)">
    <path id="Path_443" data-name="Path 443" class="cls-7" d="M322.756,71.1H469.391a2.047,2.047,0,0,1,2.056,2.056v81.677a2.047,2.047,0,0,1-2.056,2.056H322.756a2.047,2.047,0,0,1-2.056-2.056V73.156A2.047,2.047,0,0,1,322.756,71.1Z" transform="translate(-320.7 -71.1)"/>
  </g>
  <path id="Path_444" data-name="Path 444" class="cls-8" d="M327.056,72.5H469.808a2.047,2.047,0,0,1,2.056,2.056V154.5a2.047,2.047,0,0,1-2.056,2.056H327.056A2.047,2.047,0,0,1,325,154.5V74.556A2.047,2.047,0,0,1,327.056,72.5Z" transform="translate(-176.537 -39.381)"/>
  <g id="Group_278" data-name="Group 278" class="cls-6" transform="translate(189.347 45.178)">
    <path id="Path_445" data-name="Path 445" class="cls-9" d="M416.556,98.9h12.06a2.047,2.047,0,0,1,2.056,2.056v10.461a2.047,2.047,0,0,1-2.056,2.056h-12.06a2.047,2.047,0,0,1-2.056-2.056V100.956A2.047,2.047,0,0,1,416.556,98.9Z" transform="translate(-414.5 -98.9)"/>
  </g>
  <path id="Path_446" data-name="Path 446" class="cls-10" d="M461.422,98.9H503.54a.819.819,0,0,1,.822.822h0a.819.819,0,0,1-.822.822H461.422a.819.819,0,0,1-.822-.822h0A.819.819,0,0,1,461.422,98.9Z" transform="translate(-250.194 -53.722)"/>
  <path id="Path_447" data-name="Path 447" class="cls-10" d="M461.422,109.6H496.14a.819.819,0,0,1,.822.822h0a.819.819,0,0,1-.822.822H461.422a.819.819,0,0,1-.822-.822h0A.791.791,0,0,1,461.422,109.6Z" transform="translate(-250.194 -59.534)"/>
  <g id="Group_279" data-name="Group 279" class="cls-6" transform="translate(189.347 67.836)">
    <path id="Path_448" data-name="Path 448" class="cls-9" d="M416.556,148.5h12.06a2.047,2.047,0,0,1,2.056,2.056v10.461a2.047,2.047,0,0,1-2.056,2.056h-12.06a2.047,2.047,0,0,1-2.056-2.056V150.556A2.047,2.047,0,0,1,416.556,148.5Z" transform="translate(-414.5 -148.5)"/>
  </g>
  <path id="Path_449" data-name="Path 449" class="cls-10" d="M461.422,148.5H503.54a.819.819,0,0,1,.822.822h0a.819.819,0,0,1-.822.822H461.422a.819.819,0,0,1-.822-.822h0A.819.819,0,0,1,461.422,148.5Z" transform="translate(-250.194 -80.664)"/>
  <path id="Path_450" data-name="Path 450" class="cls-10" d="M461.422,159.2H503.54a.819.819,0,0,1,.822.822h0a.819.819,0,0,1-.822.822H461.422a.819.819,0,0,1-.822-.822h0A.819.819,0,0,1,461.422,159.2Z" transform="translate(-250.194 -86.476)"/>
  <g id="Group_280" data-name="Group 280" class="cls-6" transform="translate(189.347 90.494)">
    <path id="Path_451" data-name="Path 451" class="cls-9" d="M416.556,198.1h12.06a2.047,2.047,0,0,1,2.056,2.056v10.461a2.047,2.047,0,0,1-2.056,2.056h-12.06a2.047,2.047,0,0,1-2.056-2.056V200.156A2.077,2.077,0,0,1,416.556,198.1Z" transform="translate(-414.5 -198.1)"/>
  </g>
  <path id="Path_452" data-name="Path 452" class="cls-10" d="M461.422,198.1H503.54a.819.819,0,0,1,.822.822h0a.819.819,0,0,1-.822.822H461.422a.819.819,0,0,1-.822-.822h0A.819.819,0,0,1,461.422,198.1Z" transform="translate(-250.194 -107.606)"/>
  <path id="Path_453" data-name="Path 453" class="cls-10" d="M461.331,208.8H503.86a.722.722,0,0,1,.731.731v.183a.722.722,0,0,1-.731.731H461.331a.722.722,0,0,1-.731-.731v-.183A.722.722,0,0,1,461.331,208.8Z" transform="translate(-250.194 -113.418)"/>
  <line id="Line_1" data-name="Line 1" class="cls-11" y1="10.05" transform="translate(221.872 9.136)"/>
  <line id="Line_2" data-name="Line 2" class="cls-11" y1="13.202" transform="translate(221.872 22.886)"/>
  <circle id="Ellipse_65" data-name="Ellipse 65" class="cls-9" cx="1.827" cy="1.827" r="1.827" transform="translate(220.044 34.261)"/>
  <circle id="Ellipse_66" data-name="Ellipse 66" class="cls-12" cx="1.827" cy="1.827" r="1.827" transform="translate(220.044 19.186)"/>
  <line id="Line_3" data-name="Line 3" class="cls-11" y1="10.05" transform="translate(221.872 9.136)"/>
  <line id="Line_4" data-name="Line 4" class="cls-11" y1="13.202" transform="translate(221.872 22.886)"/>
  <circle id="Ellipse_67" data-name="Ellipse 67" class="cls-9" cx="1.827" cy="1.827" r="1.827" transform="translate(220.044 34.261)"/>
  <circle id="Ellipse_68" data-name="Ellipse 68" class="cls-12" cx="1.827" cy="1.827" r="1.827" transform="translate(220.044 19.186)"/>
  <line id="Line_5" data-name="Line 5" class="cls-11" y2="14.161" transform="translate(221.872 127.449)"/>
  <line id="Line_6" data-name="Line 6" class="cls-11" y2="13.202" transform="translate(221.872 114.659)"/>
  <circle id="Ellipse_69" data-name="Ellipse 69" class="cls-9" cx="1.827" cy="1.827" r="1.827" transform="translate(220.044 112.832)"/>
  <line id="Line_7" data-name="Line 7" class="cls-11" x1="14.389" transform="translate(125.257 76.972)"/>
  <line id="Line_8" data-name="Line 8" class="cls-11" x1="13.156" transform="translate(139.052 76.972)"/>
  <circle id="Ellipse_70" data-name="Ellipse 70" class="cls-9" cx="1.827" cy="1.827" r="1.827" transform="translate(150.381 75.145)"/>
  <g id="Group_281" data-name="Group 281" class="cls-4" transform="translate(186.469 198.94)">
    <rect id="Rectangle_138" data-name="Rectangle 138" width="71.262" height="1.37"/>
  </g>
  <g id="Group_282" data-name="Group 282" class="cls-1" transform="translate(8.106 80.285)">
    <path id="Path_454" data-name="Path 454" class="cls-13" d="M91.5,263.161H58.426l.457-3.7c9.365-8.405,15.394-30.743,15.394-30.743a1.334,1.334,0,0,0-.411.091,23.3,23.3,0,0,0-12.105,6.076l1.142-9.913c17.267-3.7,24.119-26.541,24.119-26.541-11.009,2.467-17.907,6.213-22.155,9.821l1.69-14.526c11.694,4.02,23.754-17.267,23.754-17.267l-.457-.091.228-.137-.365.137c-12.928-2.787-19.825,4.614-22.064,7.674l.183-1.416c-.32.914-.685,1.827-1,2.7h0v.046c-.914,2.467-1.736,4.934-2.512,7.355h0c-.64,2.056-1.279,4.111-1.873,6.121V198.8a18.407,18.407,0,0,0-14.252-16.445S49.61,210.72,60.482,206.06h0c-1,4.111-1.827,8.086-2.558,11.923h0c-.457,2.512-.868,4.934-1.188,7.309l-.046.091.046-.046-.046.183h0c-.32,2.147-.548,4.248-.777,6.3.228-3.929-.5-15.3-13.887-25.992,0,0-17.816,31.291,12.562,37.458l.183.183-.046-.137.274.046.137-1.6a174.349,174.349,0,0,0,.091,20.145h0c.046.457.046.914.091,1.37h-33.3C9.274,289.7,29.1,304.183,29.1,304.183H83.916C105.2,277.14,91.5,263.161,91.5,263.161ZM55.868,233.149Z" transform="translate(-17.746 -175.752)"/>
  </g>
  <path id="Path_455" data-name="Path 455" class="cls-14" d="M100.371,285.794S91.692,247.878,110.878,199" transform="translate(-53.457 -108.095)"/>
  <path id="Path_456" data-name="Path 456" class="cls-9" d="M23.783,364H90.933s13.247,16.9-7.309,42.026H30.635S11.449,388.668,23.783,364Z" transform="translate(-10.672 -197.722)"/>
  <path id="Path_457" data-name="Path 457" class="cls-15" d="M120.667,193.892s6.669-11.877,22.658-8.223c0,0-13.2,22.521-25.124,15.12Z" transform="translate(-64.205 -100.475)"/>
  <path id="Path_458" data-name="Path 458" class="cls-15" d="M98.05,213.849S97.547,201.7,84.3,198.5c0,0,1.37,26.495,11.877,22.155Z" transform="translate(-45.791 -107.824)"/>
  <path id="Path_459" data-name="Path 459" class="cls-15" d="M103.542,249.727s2.467-12.745,28.048-18.227c0,0-8.177,26.312-29.19,25.262Z" transform="translate(-55.623 -125.749)"/>
  <path id="Path_460" data-name="Path 460" class="cls-15" d="M78.539,272.127s2.7-13.293-13.293-25.627c0,0-17.359,29.555,12.562,35.083Z" transform="translate(-32.721 -133.897)"/>
  <path id="Path_461" data-name="Path 461" class="cls-15" d="M99.245,315.975s-1.873-18.82,18.227-22.475c0,0-7.355,26.266-18.272,30.926Z" transform="translate(-53.884 -159.427)"/>
  <path id="Path_462" data-name="Path 462" class="cls-16" d="M118.7,201.531S136.059,188.284,143.368,186" transform="translate(-64.477 -101.034)"/>
  <path id="Path_463" data-name="Path 463" class="cls-16" d="M102.2,256.624s21.013-22.384,29.236-25.124" transform="translate(-55.514 -125.749)"/>
  <path id="Path_464" data-name="Path 464" class="cls-16" d="M84.2,198.5s12.791,17.359,11.877,21.927" transform="translate(-45.737 -107.824)"/>
  <path id="Path_465" data-name="Path 465" class="cls-16" d="M71.2,246.5s6.852,31.063,12.334,35.174" transform="translate(-38.675 -133.897)"/>
  <path id="Path_466" data-name="Path 466" class="cls-16" d="M99.2,324.563s10.963-30.149,18.272-31.063" transform="translate(-53.885 -159.427)"/>
  <g id="Group_283" data-name="Group 283" class="cls-4" transform="translate(12.654 166.278)">
    <path id="Path_467" data-name="Path 467" d="M95.308,364H28.157a8.517,8.517,0,0,1-.457.914H93.024s12.928,16.491-6.578,41.113H88C108.555,380.9,95.308,364,95.308,364Z" transform="translate(-27.7 -364)"/>
  </g>
  <rect id="Rectangle_139" data-name="Rectangle 139" class="cls-17" width="443.743" height="15.029" transform="translate(0 208.122)"/>
  <rect id="Rectangle_140" data-name="Rectangle 140" class="cls-17" width="406.148" height="6.167" transform="translate(18.82 223.151)"/>
  <rect id="Rectangle_141" data-name="Rectangle 141" class="cls-18" width="406.148" height="2.056" transform="translate(18.82 223.151)"/>
  <line id="Line_9" data-name="Line 9" class="cls-11" x2="2.741" transform="translate(315.289 76.972)"/>
  <line id="Line_10" data-name="Line 10" class="cls-11" x2="20.511" transform="translate(291.078 76.972)"/>
  <circle id="Ellipse_71" data-name="Ellipse 71" class="cls-9" cx="1.827" cy="1.827" r="1.827" transform="translate(289.251 75.145)"/>
  <circle id="Ellipse_72" data-name="Ellipse 72" class="cls-12" cx="1.827" cy="1.827" r="1.827" transform="translate(311.634 75.145)"/>
  <g id="Group_284" data-name="Group 284" class="cls-1" transform="translate(374.08 129.048)">
    <path id="Path_468" data-name="Path 468" class="cls-19" d="M861.749,356.686l.046-.091c.091-.137.183-.32.274-.457l.046-.091c.091-.137.183-.32.274-.457l.046-.091.274-.548h0a5.722,5.722,0,0,0,.411-1.142l.046-.137.137-.411.046-.183c.046-.137.046-.274.091-.365,0-.091.046-.137.046-.228s.046-.274.046-.365a.412.412,0,0,1,.046-.228,1.134,1.134,0,0,0,.046-.411v-38.6h-6.3v-18.5h-7.766v18.5h-5.345V286.337h-7.766v26.541h-2.924V282.5h-7.766v30.378H818.9V350.61a11.281,11.281,0,0,0,11.42,11.146h21.927a11.4,11.4,0,0,0,9.228-4.614h0A2.432,2.432,0,0,1,861.749,356.686Z" transform="translate(-818.9 -282.5)"/>
  </g>
  <rect id="Rectangle_142" data-name="Rectangle 142" class="cls-5" width="7.309" height="45.681" transform="translate(381.754 146.635)"/>
  <rect id="Rectangle_143" data-name="Rectangle 143" class="cls-15" width="7.309" height="15.075" transform="translate(381.754 131.561)"/>
  <rect id="Rectangle_144" data-name="Rectangle 144" class="cls-5" width="7.309" height="45.681" transform="translate(391.804 150.29)"/>
  <rect id="Rectangle_145" data-name="Rectangle 145" class="cls-9" width="7.309" height="15.075" transform="translate(391.804 135.215)"/>
  <rect id="Rectangle_146" data-name="Rectangle 146" class="cls-5" width="7.309" height="45.681" transform="translate(404.138 158.056)"/>
  <rect id="Rectangle_147" data-name="Rectangle 147" class="cls-17" width="7.309" height="15.075" transform="translate(404.138 142.981)"/>
  <path id="Path_469" data-name="Path 469" class="cls-9" d="M821.7,352h42.026v36.316a10.723,10.723,0,0,1-10.735,10.735H832.435A10.723,10.723,0,0,1,821.7,388.316V352Z" transform="translate(-446.341 -191.204)"/>
  <g id="Group_285" data-name="Group 285" class="cls-4" transform="translate(375.359 160.796)">
    <path id="Path_470" data-name="Path 470" d="M821.7,352v1.827h40.2v36.316a10.777,10.777,0,0,1-2.284,6.624,10.692,10.692,0,0,0,4.111-8.451V352Z" transform="translate(-821.7 -352)"/>
  </g>
</svg>
