<svg xmlns="http://www.w3.org/2000/svg" width="23.018" height="23.018" viewBox="0 0 23.018 23.018"><defs><style>.a{fill:#f9a826;}</style></defs><g transform="translate(0 0)"><g transform="translate(0 0)"><path class="a" d="M-8.6-6.579c-.07-.168-.139-.337-.213-.506-.2-.482-.425-.958-.653-1.427A12.642,12.642,0,0,0-3.988-12.4,9.788,9.788,0,0,1-1.752-6.257,22.748,22.748,0,0,0-8.6-6.579m2.512,8.571A42.447,42.447,0,0,0-8-5.027,14.248,14.248,0,0,1-1.874-4.6a9.83,9.83,0,0,1-4.212,6.59M-11.577,3.67a9.784,9.784,0,0,1-6.136-2.153l-.126-.1.126.1.094.072s1.884-4.108,7.713-6.14c.021-.008.045-.013.066-.02a40.893,40.893,0,0,1,2.1,7.462,9.793,9.793,0,0,1-3.837.779M-18.889.409A9.791,9.791,0,0,1-21.408-6.16c0-.1.006-.206.008-.309a36.049,36.049,0,0,0,10.091-1.4c.281.551.55,1.112.8,1.671-.13.035-.259.075-.387.117A15.547,15.547,0,0,0-18.893.4s0,0,0,.006m3.117-15.456a58.805,58.805,0,0,1,3.65,5.662,36.375,36.375,0,0,1-9.075,1.2,9.83,9.83,0,0,1,5.424-6.862m1.839-.655a.008.008,0,0,1,0,0l-.029.005a.186.186,0,0,0,.031-.008m2.355-.286a9.789,9.789,0,0,1,6.491,2.453,10.708,10.708,0,0,1-5.135,3.558,50.011,50.011,0,0,0-3.673-5.734,9.821,9.821,0,0,1,2.317-.277m10.6,5.349a11.365,11.365,0,0,0-1.061-1.954,11.5,11.5,0,0,0-1.4-1.7,11.526,11.526,0,0,0-1.7-1.4A11.455,11.455,0,0,0-7.1-16.762a11.536,11.536,0,0,0-2.163-.67,11.535,11.535,0,0,0-2.317-.235,11.54,11.54,0,0,0-2.318.235,11.536,11.536,0,0,0-2.163.67A11.544,11.544,0,0,0-18.015-15.7a11.609,11.609,0,0,0-1.7,1.4,11.624,11.624,0,0,0-1.4,1.7,11.362,11.362,0,0,0-1.061,1.954,11.473,11.473,0,0,0-.673,2.163,11.6,11.6,0,0,0-.233,2.315,11.633,11.633,0,0,0,.233,2.32,11.44,11.44,0,0,0,.673,2.161A11.379,11.379,0,0,0-21.121.277a11.724,11.724,0,0,0,1.4,1.7,11.762,11.762,0,0,0,1.7,1.4,11.537,11.537,0,0,0,1.956,1.061,11.354,11.354,0,0,0,2.163.67,11.449,11.449,0,0,0,2.318.235,11.445,11.445,0,0,0,2.317-.235A11.354,11.354,0,0,0-7.1,4.444,11.449,11.449,0,0,0-5.144,3.383a11.677,11.677,0,0,0,1.7-1.4,11.6,11.6,0,0,0,1.4-1.7A11.382,11.382,0,0,0-.975-1.679,11.532,11.532,0,0,0-.3-3.84,11.633,11.633,0,0,0-.069-6.16,11.6,11.6,0,0,0-.3-8.475a11.565,11.565,0,0,0-.673-2.163" transform="translate(23.087 17.668)"/></g></g></svg>