<svg xmlns="http://www.w3.org/2000/svg" width="692.319" height="453.2" viewBox="0 0 692.319 453.2"><defs><style>.a{fill:rgba(149,149,149,0.43);}.b{fill:#959595;}.c{fill:#7d480b;}.d{fill:#ffc8ac;}.e{fill:#f9a826;}.f{fill:#2f2e41;}.g{fill:#fff;}</style></defs><g transform="translate(0 -0.003)"><path class="a" d="M821.687,279.135,696.295,385.827l-27.414,23.36-76.736-.424-65.54-.424-5.386-.061L507.9,392.666l-52.832-62.03-26.567-31.167-7.988-9.38-5.749-6.778-12.83-15.069L381.12,243.793l21.06-17.974,20.152-17.126L436.8,196.347,619.074,41.12Z" transform="translate(-150.476 -20.234)"/><path class="b" d="M0,0H666.3V1.21H0Z" transform="translate(26.022 387.633)"/><rect class="c" width="53.195" height="66.085" transform="translate(440.748 28.584)"/><path class="d" d="M641.407,586.83,633.6,615.515l13.011,9.5,3.51-2.6,6.052-29.472Z" transform="translate(-250.162 -231.694)"/><path class="d" d="M807,582.53l-2.6,34.737h16.461V585.132Z" transform="translate(-317.598 -229.997)"/><path class="e" d="M731.779,224.2,729.6,244.9l32.135,5.2,27.778-11.317-5.2-13.011Q757.983,224.956,731.779,224.2Z" transform="translate(-288.065 -89.348)"/><path class="f" d="M716.673,241.94c-6.959-1.331-13.919-2.723-20.818-4.055-4.66,18.458-9.259,36.855-13.919,55.313L664.568,363.52s-26.022,59.912-22.573,73.831l1.755,4.357-1.755,7.807,17.369,6.959,6.959-11.317s5.2,7.807,13.919-8.654,45.146-118.977,45.146-118.977,4.176,28.383,5.2,33.89c1.755,8.654,3.449,35.584,3.449,35.584s-9.562,46.9,3.45,50.35l2.6,10.409,18.216,1.755,3.45-10.409s17.369-6.052,13.011-36.492-6.052-130.234-6.052-130.234L751.592,230.2Z" transform="translate(-253.352 -91.717)"/><path class="g" d="M618.516,630.915s-4.357-3.449-6.052-2.6-19.971,24.328-19.971,24.328-19.124,14.766-5.2,16.521,52.105-17.369,52.105-21.726-8.049-15.19-8.049-15.19S625.475,636.967,618.516,630.915Z" transform="translate(-229.873 -248.849)"/><path class="g" d="M799.545,628.288s15.613-.968,18.216,1.695,1.755,15.674,1.755,15.674,1.755,23.42-12.164,23.42-10.409-15.614-10.409-15.614Z" transform="translate(-314.498 -248.824)"/><path class="d" d="M763.526,22.9c9.683.3,17.247,11.256,17.429,21.363s-7.02,21.786-17.429,22.028c-9.985.3-17.732-10.167-18.579-19.547C743.919,35.363,752.875,22.594,763.526,22.9Z" transform="translate(-294.093 -9.866)"/><path class="d" d="M739.108,81c4.66,7.444,4.418,11.68,3.268,14.222-1.694,3.752-5.507,4.176-15.432,11.8-3.389,2.6-5.083,3.873-5.507,4.539-10.651,15.916,22.876,53.618,22.876,53.618s48.6-18.216,44.3-53.86a49.109,49.109,0,0,1-15.856-7.444c-4.115-2.965-7.081-5.083-8.412-9.078-2-5.81.787-11.317,1.694-12.951Z" transform="translate(-284.017 -32.809)"/><path class="d" d="M715.666,122.5s-19.971-2.463-20.818,13.169,0,53.431,0,53.431c-.393,2.263-.914,5.6-1.307,9.683-.545,5.574-.605,9.8-.605,12.358-.127,14.076,1.707,37.478,1.815,38.78h0l1.543-.43a67.693,67.693,0,0,1,6.748-1.3l-.424.079,6.052-53.431-2.6-39.457,11.317-23.826Z" transform="translate(-273.586 -49.137)"/><path class="d" d="M826.423,128.149s16.6-.375,17.344,13.919-5.326,58.006-5.326,58.006l-9.126,5.344-8.376-30.331Z" transform="translate(-324.128 -51.424)"/><path class="d" d="M828.576,248.285l-1.6,3.976,4.757,11.886q-17.356,15.432-16.1,17.133.781,1.059,8.836-3.244l12.854,6.736s10.336-11.111,5.525-21.393a109.61,109.61,0,0,1-6.578-17.139S829.35,245.907,828.576,248.285Z" transform="translate(-321.996 -98.043)"/><path class="e" d="M719.933,117.6l-2.6,28.625a25.417,25.417,0,0,0-3.631,12.951,25.738,25.738,0,0,0,5.386,15.735c1.937,4.478,3.813,9.017,5.749,13.5,2.118-.3,5.386-.787,9.32-1.089a219.976,219.976,0,0,1,23.36-.545c5.386.061,13.193.061,22.876-.242l.3-9.864s8.654-12.164,6.052-30.38,0-24.328,0-24.328l-6.052-.847s-3.934,26.507-30.8,29.109c0,0-33.406,3.026-23.9-32.558Z" transform="translate(-281.787 -47.259)"/><path class="c" d="M748.592,1.692S730.618.6,726.5,11.738A42.6,42.6,0,0,1,715.126,28.8a18.308,18.308,0,0,0-5.689,22.149s-17.792,11.922-6.052,22.573c0,0-.666,10.591,6.233,17.853,0,0,5.507,2.784,3.45,4.478s13.8.545,12.467-14.524,7.928-25.72,7.928-25.72-8.957-19.547-4.841-26.265c2.542-4.055,3.57-7.081,5.689-8.836a26.258,26.258,0,0,0,3.207-3.147,7.347,7.347,0,0,1,7.988-2.481,10.63,10.63,0,0,1,7.625,6.717s4.478,11.982,12.1,17.611-5.87,15.371-5.87,15.371,2.36,11.5,8.412,18.337-1.755,12.769-2.179,13.5c-1.029,1.755-5.2,12.769,11.922,12.769,0,0,3.994-8.351,9.5-13.374s1.392-19.547,1.392-19.547,8.291-5.023-.666-17.308c0,0,2.784-11.2-4.841-18.458C782.784,30.5,772.073-2.181,748.592,1.692Z" transform="translate(-276.132 -1.37)"/><path class="d" d="M707.413,332.9a26.992,26.992,0,0,1,2.324,2.977,8.322,8.322,0,0,1,.986,1.816c.472,1.059.944,2.118,1.338,3.207a23.525,23.525,0,0,1,1.386,8.146.478.478,0,0,1-.605.448c-.72-.254-1.489-1.289-2.741-3.7-.43-.823-.769-1.531-1.21-2.5s-.823-1.755-1.071-2.306c.829,5.61,1.864,9.78,2.167,13.423.194,2.421.073,6.185-.914,8.418a.872.872,0,0,1-.678.545c-.605.073-.853-.557-.974-1.077-.847-3.77-.472-9.211-1.731-12.872.248,2.862.66,7.129.908,9.991a15.419,15.419,0,0,1,0,4.321c-.085.43-.363,1.652-.853,1.815a.75.75,0,0,1-.708-.163,2.324,2.324,0,0,1-.89-1.356c-1.15-3.782-.871-8.739-1.882-12.539q.405,4.563.823,9.132a2.852,2.852,0,0,1-.605,2.536.527.527,0,0,1-.375.145.545.545,0,0,1-.321-.224c-1.331-1.773-1.894-6.657-1.894-6.657a25.61,25.61,0,0,0-1.247-5.447,34.908,34.908,0,0,1,.4,4.521c.036,1.531.109,4.642-.726,4.841a.3.3,0,0,1-.182,0c-.914-.284-3.183-10.657-3.631-13.417-.188-1.113-.278-1.888-.484-3.244-.1-.69-.175-1.107-.224-1.4-.091-.557-.151-.9-.163-.986-.321-1.943.333-5.2.605-6.56.054-.254.036-.157.157-.738.557-2.669.605-3.062.811-3.752a5.749,5.749,0,0,1,1.168-2.336c1.894-2.058,6.258-1.931,6.99-.514,0,.042,0,.036.067.188a8.038,8.038,0,0,0,1.065,2.015A42.2,42.2,0,0,0,707.413,332.9Z" transform="translate(-273.83 -129.674)"/><circle class="a" cx="10.288" cy="10.288" r="10.288" transform="translate(61.244 359.614)"/><path class="a" d="M0,0H692.319V33.285H0Z" transform="translate(0 419.918)"/><circle class="a" cx="27.838" cy="27.838" r="27.838" transform="translate(590.214 90.281)"/><path class="a" d="M17.943,0A17.943,17.943,0,1,1,0,17.943,17.943,17.943,0,0,1,17.943,0Z" transform="translate(142.615 326.928)"/></g></svg>