<?xml version="1.0" encoding="utf-8"?>
<!-- Generator: Adobe Illustrator 24.1.2, SVG Export Plug-In . SVG Version: 6.00 Build 0)  -->
<svg version="1.1" id="BigLeaf" xmlns="http://www.w3.org/2000/svg" xmlns:xlink="http://www.w3.org/1999/xlink" x="0px" y="0px"
	 viewBox="0 0 244.9 328.4" style="enable-background:new 0 0 244.9 328.4;" xml:space="preserve">
<style type="text/css">
	.st0{opacity:0.8;}
	.st1{fill:#BAD4AA;}
	.st2{fill:#444053;}
	.st3{fill:none;stroke:#444053;stroke-width:1.0001;stroke-miterlimit:10.0012;}
	.st4{fill:none;stroke:#444053;stroke-width:0.7501;stroke-miterlimit:10.0012;}
	.st5{opacity:0.6;}
	.st6{fill:none;stroke:#535461;stroke-width:2;stroke-miterlimit:10;}
	.st7{opacity:0.25;enable-background:new    ;}
</style>
<g id="Big_leaf" transform="matrix(0.966, -0.259, 0.259, 0.966, -122.455, 765.782)" class="st0">
	<path id="Path_202" class="st1" d="M481.7-401.9c0,0-10.7-4.3-44.6,11.2c-33.9,15.6-38.1,13.6-46.8,11.2s-13.7-2.9-23-16
		c0,0-6.6-36-13-41.6s-33.8,3.2-33.8,3.2s-32.7,7.6-39-36.2c0,0,4.4-33-1.6-43.1c0,0,12.2,5.3,32.2-3.2S348-507,348-507
		s5.1,13.1,4.5,20.9c-0.6,7.7,2.6,10.8,12.3,7c0,0,4.7-6.7-2-17.8c-6.7-11-11.4-19.3-9.5-27.9s7.2-20.5,24.4-26.4
		s40.5-7.1,51.7-11.7s14.1-7.7,14.1-7.7s-6.9,6.9,9.3,36.2c16.2,29.3,5.9,41.9,5.9,41.9s-8.6,20.6-46.7,18.9c0,0-36.7,1.3-16.7,16.9
		c0,0,12.8-2.6,32-8.7s33,19.1,36.5,36.5C467-411.4,481.7-401.9,481.7-401.9z"/>
	<path id="Path_203" class="st2" d="M432.3-548.5l0.2-0.1c1.5,5.6-14.9,28-29,45.8l-0.2-0.1C423.2-528,433.5-544.2,432.3-548.5z"/>
	<path id="Path_204" class="st2" d="M403.7-503.2l0.1,0.2c-11.2,14.3-25.3,31.3-36.5,43.8c-1,1.2-2.2,2.5-3.1,3.8l-0.3-0.3
		c1-1.3,2.1-2.5,3.2-3.8C378.2-472,392.5-489,403.7-503.2z"/>
	<path id="Path_205" class="st2" d="M364-456l0.2,0.4c-20.5,25.6-21.9,65.4-21.9,65.7l-4.3-4.9C338-395.3,343.3-430.2,364-456z"/>
	<path id="Path_206" class="st3" d="M457.9-415.8c0,0-24.2-12.6-43.1-8s-61.3-16-61.3-16s-18-7.4-21.6-15.7c0,0-12.4-13.1-13-19.8
		c-0.7-6.7-12.8-23.8-20.6-24.4"/>
	<path id="Path_207" class="st3" d="M454.4-403.7c0,0-12.2-8.2-10.8-17.8"/>
	<path id="Path_208" class="st3" d="M435.7-393c0,0-17.5-6.3-19.2-31.2"/>
	<path id="Path_209" class="st3" d="M407.5-386.6c0,0-16.6-13.8-11.1-38"/>
	<path id="Path_210" class="st3" d="M373.7-393.4c0,0-11-23.2-1.2-38.3"/>
	<path id="Path_211" class="st3" d="M458.2-431.1c0,0-12.6,4-9.9,10.7"/>
	<path id="Path_212" class="st3" d="M443-453.9c0,0-16.9,5.4-17.3,29.2"/>
	<path id="Path_213" class="st3" d="M419.4-459.5c0,0-15.4,19-14.3,36.2"/>
	<path id="Path_214" class="st3" d="M392.5-452c0,0-15.3,14.5-13.3,22.7"/>
	<path id="Path_215" class="st3" d="M383.4-457.1c0,0-14.3,2.5-16.3-2.2"/>
	<path id="Path_216" class="st3" d="M364.8-474.4c0,0,7.3,9.5,9.1,7.5"/>
	<path id="Path_217" class="st3" d="M436.3-480.5c0,0-36.1,2.6-44.2-8.2"/>
	<path id="Path_218" class="st3" d="M357.2-522.7c0,0,16.9,36.3,29.2,40.9"/>
	<path id="Path_219" class="st3" d="M375-539.9c0,0,10.4,33.3,23.2,43.8"/>
	<path id="Path_220" class="st4" d="M451.5-508c0,0-27.4,11.7-43.8-0.1"/>
	<path id="Path_221" class="st4" d="M399.3-547c0,0,6.2,24.6,14.7,30.5"/>
	<path id="Path_222" class="st4" d="M447.4-535.5c0,0-15.4,5.9-21.2,1.3"/>
	<path id="Path_223" class="st3" d="M351.5-466.4c0,0,0,21.4-5.9,22.9"/>
	<path id="Path_224" class="st3" d="M303.9-438.7c0,0,23.1,2,33.8-9.9"/>
	<path id="Path_225" class="st3" d="M345.6-491.7c0,0-5.6,21.7-21.1,27.6"/>
	<path id="Path_226" class="st3" d="M290.1-461.6c0,0,16.3,5.7,30.5-8.8"/>
	<path id="Path_227" class="st3" d="M327.4-510.4c0,0-1.5,18.4-11.6,27"/>
	<path id="Path_228" class="st3" d="M290.7-489.6c0,0,13.6,0.1,16.8-4.3"/>
</g>
<g id="small_leaves" transform="translate(33.455 610.126) rotate(57)" class="st5">
	<path id="Path_114" class="st6" d="M-374.4-339.1c0,0-14.6-25.9-36.7-33.4c-9.3-3.1-17.3-9.1-22.8-17.1c-2.6-3.8-4.9-7.9-6.8-12.1"
		/>
	<path id="Path_115" class="st1" d="M-454.4-406.5c2.5,2.4,14.2,4.9,14.2,4.9s-2.9-11.6-5.4-14.1c-2.4-2.5-6.4-2.6-8.9-0.1
		c-2.5,2.4-2.6,6.4-0.1,8.9c0,0,0.1,0.1,0.1,0.1C-454.5-406.6-454.5-406.5-454.4-406.5L-454.4-406.5z"/>
	<path id="Path_116" class="st1" d="M-447.8-385.5c3.4,0.7,14.6-3.6,14.6-3.6s-8.7-8.2-12.1-8.9c-3.4-0.7-6.8,1.6-7.5,5c0,0,0,0,0,0
		c-0.7,3.4,1.4,6.7,4.8,7.4C-447.9-385.5-447.9-385.5-447.8-385.5L-447.8-385.5z"/>
	<path id="Path_117" class="st1" d="M-423.7-362.7c3.3-1.1,10.8-10.4,10.8-10.4s-11.7-2.7-15-1.5c-3.3,1.1-5.1,4.8-3.9,8.1
		C-430.7-363.4-427.1-361.6-423.7-362.7L-423.7-362.7L-423.7-362.7z"/>
	<path id="Path_118" class="st1" d="M-401.7-349.7c3.5-0.6,12.5-8.5,12.5-8.5s-11-4.6-14.5-4c-3.4,0.6-5.8,3.9-5.2,7.3
		C-408.3-351.4-405.1-349.1-401.7-349.7L-401.7-349.7z"/>
	<path id="Path_119" class="st1" d="M-423.4-398.1c0,3.5-6.3,13.6-6.3,13.6s-6.3-10.1-6.3-13.6c0-3.5,2.9-6.3,6.4-6.3
		C-426.2-404.3-423.5-401.5-423.4-398.1L-423.4-398.1z"/>
	<path id="Path_120" class="st1" d="M-397.8-382.4c-1.1,3.4-10.1,11.1-10.1,11.1s-3-11.6-2-14.9c1-3.3,4.6-5.2,7.9-4.2
		C-398.6-389.3-396.7-385.8-397.8-382.4L-397.8-382.4z"/>
	<path id="Path_121" class="st1" d="M-374.9-363.8c-0.5,3.5-8.1,12.7-8.1,12.7s-5-10.9-4.5-14.4c0.4-3.5,3.6-5.9,7.1-5.5
		c3.5,0.4,5.9,3.6,5.5,7.1C-374.9-363.9-374.9-363.8-374.9-363.8L-374.9-363.8z"/>
	<path id="Path_122" class="st7" d="M-454.4-406.5c2.5,2.4,14.2,4.9,14.2,4.9s-2.9-11.6-5.4-14.1c-2.4-2.5-6.4-2.6-8.9-0.1
		c-2.5,2.4-2.6,6.4-0.1,8.9c0,0,0.1,0.1,0.1,0.1C-454.5-406.6-454.5-406.5-454.4-406.5L-454.4-406.5z"/>
	<path id="Path_123" class="st7" d="M-447.8-385.5c3.4,0.7,14.6-3.6,14.6-3.6s-8.7-8.2-12.1-8.9c-3.4-0.7-6.8,1.6-7.5,5c0,0,0,0,0,0
		c-0.7,3.4,1.4,6.7,4.8,7.4C-447.9-385.5-447.9-385.5-447.8-385.5L-447.8-385.5z"/>
	<path id="Path_124" class="st7" d="M-423.7-362.7c3.3-1.1,10.8-10.4,10.8-10.4s-11.7-2.7-15-1.5c-3.3,1.1-5.1,4.8-3.9,8.1
		C-430.7-363.4-427.1-361.6-423.7-362.7L-423.7-362.7L-423.7-362.7z"/>
	<path id="Path_125" class="st7" d="M-401.7-349.7c3.5-0.6,12.5-8.5,12.5-8.5s-11-4.6-14.5-4c-3.4,0.6-5.8,3.9-5.2,7.3
		C-408.3-351.4-405.1-349.1-401.7-349.7L-401.7-349.7z"/>
	<path id="Path_126" class="st7" d="M-423.4-398.1c0,3.5-6.3,13.6-6.3,13.6s-6.3-10.1-6.3-13.6c0-3.5,2.9-6.3,6.4-6.3
		C-426.2-404.3-423.5-401.5-423.4-398.1L-423.4-398.1z"/>
	<path id="Path_127" class="st7" d="M-397.8-382.4c-1.1,3.4-10.1,11.1-10.1,11.1s-3-11.6-2-14.9c1-3.3,4.6-5.2,7.9-4.2
		C-398.6-389.3-396.7-385.8-397.8-382.4L-397.8-382.4z"/>
	<path id="Path_128" class="st7" d="M-374.9-363.8c-0.5,3.5-8.1,12.7-8.1,12.7s-5-10.9-4.5-14.4c0.4-3.5,3.6-5.9,7.1-5.5
		c3.5,0.4,5.9,3.6,5.5,7.1C-374.9-363.9-374.9-363.8-374.9-363.8L-374.9-363.8z"/>
	<path id="Path_129" class="st6" d="M-375.2-339.6c0,0-2.9-29.6-20-45.4c-7.2-6.5-12.1-15.3-13.9-24.9c-0.8-4.5-1.3-9.2-1.3-13.8"/>
	<path id="Path_130" class="st1" d="M-421.1-433.7c1.3,3.2,11,10.3,11,10.3s2.1-11.8,0.8-15c-1.3-3.2-5-4.8-8.2-3.5
		C-420.8-440.6-422.4-436.9-421.1-433.7L-421.1-433.7z"/>
	<path id="Path_131" class="st1" d="M-423.5-411.8c2.9,2,14.8,2.7,14.8,2.7s-4.6-11-7.5-13c-2.9-2-6.8-1.3-8.8,1.6
		C-427-417.7-426.3-413.8-423.5-411.8L-423.5-411.8z"/>
	<path id="Path_132" class="st1" d="M-410.8-381.3c3.5,0.3,14.1-5.2,14.1-5.2s-9.6-7.1-13-7.5c-3.5-0.3-6.5,2.3-6.8,5.8
		S-414.2-381.6-410.8-381.3L-410.8-381.3z"/>
	<path id="Path_133" class="st1" d="M-395.9-360.3c3.4,0.9,14.8-2.7,14.8-2.7s-8.3-8.7-11.6-9.6c-3.3-1-6.9,0.8-7.9,4.2
		s0.8,6.9,4.2,7.9l0,0C-396.2-360.5-396-360.4-395.9-360.3L-395.9-360.3z"/>
	<path id="Path_134" class="st1" d="M-396.2-413.5c-1.4,3.2-11.3,9.9-11.3,9.9s-1.7-11.8-0.3-15.1c1.4-3.2,5.1-4.8,8.3-3.4
		c3.2,1.4,4.8,5.1,3.4,8.3C-396.1-413.6-396.1-413.5-396.2-413.5L-396.2-413.5z"/>
	<path id="Path_135" class="st1" d="M-379-388.8c-2.3,2.6-13.8,6.1-13.8,6.1s1.9-11.8,4.3-14.4c2.3-2.6,6.3-2.9,8.9-0.6
		C-377-395.4-376.7-391.4-379-388.8L-379-388.8L-379-388.8z"/>
	<path id="Path_136" class="st1" d="M-365.7-362.5c-1.8,3-12.5,8.3-12.5,8.3s-0.1-12,1.8-15c1.8-3,5.7-4,8.7-2.2
		c3,1.8,4,5.7,2.2,8.7C-365.7-362.6-365.7-362.5-365.7-362.5L-365.7-362.5z"/>
</g>
</svg>
