<svg xmlns="http://www.w3.org/2000/svg" width="19.908" height="18.098" viewBox="0 0 19.908 18.098"><defs><style>.a{fill:#f9a826;}</style></defs><path class="a" d="M.931-10.488h3.88v-12.3H.931Z" transform="translate(-0.429 28.586)"/><g transform="translate(0 0)"><g transform="translate(6.751 5.686)"><path class="a" d="M-7.022,0C-9.245,0-10.638,1.2-10.9,2.047V.118h-4.359c.057,1.024,0,12.295,0,12.295H-10.9V5.76a2.8,2.8,0,0,1,.094-1A2.222,2.222,0,0,1-8.7,3.248c1.513,0,2.2,1.137,2.2,2.8v6.362h4.4V5.576C-2.1,1.768-4.265,0-7.022,0" transform="translate(15.255)"/></g><g transform="translate(0 0)"><path class="a" d="M-2.022,0a2.167,2.167,0,0,0-2.37,2.135A2.145,2.145,0,0,0-2.077,4.266h.028A2.163,2.163,0,0,0,.318,2.131,2.155,2.155,0,0,0-2.022,0" transform="translate(4.392)"/></g></g></svg>