<?xml version="1.0" encoding="utf-8"?>
<!-- Generator: Adobe Illustrator 24.1.2, SVG Export Plug-In . SVG Version: 6.00 Build 0)  -->
<svg version="1.1" id="Layer_1" xmlns="http://www.w3.org/2000/svg" xmlns:xlink="http://www.w3.org/1999/xlink" x="0px" y="0px"
	 viewBox="0 0 257 326" style="enable-background:new 0 0 257 326;" xml:space="preserve">
<style type="text/css">
	.st0{fill:#FFFFFF;stroke:#000000;stroke-width:5;stroke-miterlimit:10;}
	.st1{display:none;}
	.st2{display:inline;}
</style>
<g>
	<path class="st0" d="M241.2,245.9c-30.9,23.8-61.7,47.7-92.6,71.5c-3.8,1.8-11.3,4.8-21.2,4.6c-8.9-0.2-15.6-2.9-19.3-4.6
		c-29.7-23.9-59.3-47.9-89-71.8c0-24.1,0-48.2,0-72.3c2.1-1.7,44.1-36,46.2-37.7c2.2-1.8,45.6-37.3,47.9-39.1
		c0.8-0.1,1.7-0.3,2.5-0.4h27.7c15.7,12.9,31.8,25.9,48.3,39c16.6,13.1,33,25.9,49.3,38.3C241.1,197.5,241.1,221.7,241.2,245.9z"/>
	<g class="st1">
		<path class="st2" d="M142.4,154.2c1,4.1,0.6,7.2-2.4,22.6c-3.2,16.3-3.9,18.3-4.8,18.3c-0.7,0-1.5-1.1-4.8-16.3
			c-3.8-17.6-3.8-21.1-2.9-24.5c1.1-4.1,3.8-10.1,7.5-10.1C138.6,144.1,141.4,150.1,142.4,154.2z"/>
		<path class="st2" d="M109.6,157.7c3.6,2.4,7.3,4.7,10.9,7.1c-0.6-4.3-1.2-8.6-1.9-12.8c-1.9-3.8-5.9-5.1-8.1-4
			C108.2,149.2,106.9,153.8,109.6,157.7z"/>
		<path class="st2" d="M151,152.3c-0.2,4.4-0.5,8.9-0.7,13.3c3.5-2.7,7-5.5,10.4-8.2c2.4-3.6,1.5-7.8-0.6-9.2
			C157.8,146.7,153.1,147.9,151,152.3z"/>
	</g>
	<g>
		<g>
			<path d="M46.2,188c10.2,3.8,25.5,10.6,39.3,22.3c22,18.6,27.1,38.6,28.6,47.4"/>
			<path d="M46.4,188.1c-0.5,5.8-0.9,24.6,17.4,43.1c17.8,18.1,42.4,24.6,50.4,26.4"/>
		</g>
		<g>
			<path d="M217.7,187.5c-10.2,3.8-25.5,10.6-39.3,22.3c-22,18.6-27.1,38.6-28.6,47.4"/>
			<path d="M217.5,187.6c0.5,5.8,0.9,24.6-17.4,43.1c-17.8,18.1-42.4,24.6-50.4,26.4"/>
		</g>
	</g>
	<g>
		<path class="st0" d="M113.2,96.3c-31.4,25.6-62.7,51.3-94.1,76.9c-8.1-18.4-28-70.3-9.6-128.8c5.8-18.4,14.1-33.3,22-44.8
			C42.4,18,54.2,29.1,63,35.9c15.1,11.7,25.7,13.9,36.1,26.7C108.6,74.3,111.9,87.3,113.2,96.3z"/>
		<path class="st0" d="M143.8,96.3c32.4,25.6,64.8,51.3,97.3,76.9c7.9-19.9,25-71.2,6.4-128.8c-5.9-18.3-14.1-33.2-22-44.8
			C214.5,18,202.7,29.1,194,35.9c-15.1,11.7-25.7,13.9-36.1,26.7C148.4,74.3,145.1,87.3,143.8,96.3z"/>
	</g>
</g>
</svg>
